<svg width="28" height="28" viewBox="0 0 28 28" fill="none" xmlns="http://www.w3.org/2000/svg">
<path d="M15.0852 14.7326L6.20216 16.2125C6.10003 16.2295 6.00419 16.2732 5.92428 16.339C5.84437 16.4048 5.7832 16.4905 5.74692 16.5875L2.6841 24.7922C2.39162 25.5468 3.18061 26.2661 3.90475 25.9029L25.1334 15.2904C25.2801 15.2168 25.4035 15.104 25.4897 14.9643C25.5759 14.8247 25.6216 14.6638 25.6216 14.4997C25.6216 14.3356 25.5759 14.1748 25.4897 14.0351C25.4035 13.8955 25.2801 13.7826 25.1334 13.7091L3.90475 3.09653C3.18061 2.73452 2.39162 3.45381 2.6841 4.20731L5.7481 12.412C5.78438 12.509 5.84555 12.5947 5.92546 12.6605C6.00537 12.7263 6.10121 12.7699 6.20334 12.787L15.0863 14.2668C15.1418 14.2757 15.1922 14.304 15.2286 14.3467C15.265 14.3894 15.285 14.4436 15.285 14.4997C15.285 14.5558 15.265 14.6101 15.2286 14.6528C15.1922 14.6955 15.1418 14.7238 15.0863 14.7326H15.0852Z" fill="#234622"/>
</svg>
